<mxfile host="app.diagrams.net" agent="Mozilla/5.0 (Windows NT 10.0; Win64; x64) AppleWebKit/537.36 (KHTML, like Gecko) Chrome/133.0.0.0 Safari/537.36" version="26.0.16">
  <diagram name="Pagina-1" id="kzONSPiczHOv7Dzmhq7z">
    <mxGraphModel dx="1434" dy="746" grid="1" gridSize="10" guides="1" tooltips="1" connect="1" arrows="1" fold="1" page="1" pageScale="1" pageWidth="827" pageHeight="1169" math="0" shadow="0">
      <root>
        <mxCell id="0" />
        <mxCell id="1" parent="0" />
        <mxCell id="FfotNthqdJwn24juFb6e-1" value="Getal Invoer" style="ellipse;whiteSpace=wrap;html=1;" vertex="1" parent="1">
          <mxGeometry x="354" y="110" width="120" height="80" as="geometry" />
        </mxCell>
        <mxCell id="FfotNthqdJwn24juFb6e-3" value="" style="shape=flexArrow;endArrow=classic;html=1;rounded=0;exitX=1;exitY=0.5;exitDx=0;exitDy=0;" edge="1" parent="1" source="FfotNthqdJwn24juFb6e-21">
          <mxGeometry width="50" height="50" relative="1" as="geometry">
            <mxPoint x="500" y="300" as="sourcePoint" />
            <mxPoint x="650" y="300" as="targetPoint" />
          </mxGeometry>
        </mxCell>
        <mxCell id="FfotNthqdJwn24juFb6e-5" value="Geen Getal?" style="text;html=1;align=center;verticalAlign=middle;whiteSpace=wrap;rounded=0;" vertex="1" parent="1">
          <mxGeometry x="510" y="260" width="90" height="30" as="geometry" />
        </mxCell>
        <mxCell id="FfotNthqdJwn24juFb6e-6" value="Incorrecte Invoer" style="rounded=0;whiteSpace=wrap;html=1;" vertex="1" parent="1">
          <mxGeometry x="650" y="270" width="120" height="60" as="geometry" />
        </mxCell>
        <mxCell id="FfotNthqdJwn24juFb6e-7" value="" style="shape=flexArrow;endArrow=classic;html=1;rounded=0;exitX=0.5;exitY=1;exitDx=0;exitDy=0;" edge="1" parent="1" source="FfotNthqdJwn24juFb6e-1">
          <mxGeometry width="50" height="50" relative="1" as="geometry">
            <mxPoint x="410" y="200" as="sourcePoint" />
            <mxPoint x="414" y="240" as="targetPoint" />
          </mxGeometry>
        </mxCell>
        <mxCell id="FfotNthqdJwn24juFb6e-9" value="Getal deelbaar door 2?" style="rhombus;whiteSpace=wrap;html=1;" vertex="1" parent="1">
          <mxGeometry x="337" y="380" width="154" height="150" as="geometry" />
        </mxCell>
        <mxCell id="FfotNthqdJwn24juFb6e-10" value="" style="shape=flexArrow;endArrow=classic;html=1;rounded=0;entryX=0.5;entryY=0;entryDx=0;entryDy=0;exitX=0.5;exitY=1;exitDx=0;exitDy=0;" edge="1" parent="1" source="FfotNthqdJwn24juFb6e-21" target="FfotNthqdJwn24juFb6e-9">
          <mxGeometry width="50" height="50" relative="1" as="geometry">
            <mxPoint x="414" y="330" as="sourcePoint" />
            <mxPoint x="400" y="330" as="targetPoint" />
          </mxGeometry>
        </mxCell>
        <mxCell id="FfotNthqdJwn24juFb6e-12" value="Even" style="rounded=0;whiteSpace=wrap;html=1;" vertex="1" parent="1">
          <mxGeometry x="234" y="630" width="120" height="60" as="geometry" />
        </mxCell>
        <mxCell id="FfotNthqdJwn24juFb6e-13" value="Oneven" style="rounded=0;whiteSpace=wrap;html=1;" vertex="1" parent="1">
          <mxGeometry x="474" y="630" width="120" height="60" as="geometry" />
        </mxCell>
        <mxCell id="FfotNthqdJwn24juFb6e-14" value="" style="shape=flexArrow;endArrow=classic;html=1;rounded=0;entryX=0.575;entryY=-0.05;entryDx=0;entryDy=0;entryPerimeter=0;exitX=0;exitY=1;exitDx=0;exitDy=0;" edge="1" parent="1" source="FfotNthqdJwn24juFb6e-9" target="FfotNthqdJwn24juFb6e-12">
          <mxGeometry width="50" height="50" relative="1" as="geometry">
            <mxPoint x="270" y="560" as="sourcePoint" />
            <mxPoint x="320" y="510" as="targetPoint" />
          </mxGeometry>
        </mxCell>
        <mxCell id="FfotNthqdJwn24juFb6e-15" value="" style="shape=flexArrow;endArrow=classic;html=1;rounded=0;entryX=0.5;entryY=0;entryDx=0;entryDy=0;exitX=1;exitY=1;exitDx=0;exitDy=0;" edge="1" parent="1" source="FfotNthqdJwn24juFb6e-9" target="FfotNthqdJwn24juFb6e-13">
          <mxGeometry width="50" height="50" relative="1" as="geometry">
            <mxPoint x="474" y="490" as="sourcePoint" />
            <mxPoint x="401" y="624" as="targetPoint" />
          </mxGeometry>
        </mxCell>
        <mxCell id="FfotNthqdJwn24juFb6e-16" value="Einde" style="ellipse;whiteSpace=wrap;html=1;" vertex="1" parent="1">
          <mxGeometry x="354" y="780" width="120" height="80" as="geometry" />
        </mxCell>
        <mxCell id="FfotNthqdJwn24juFb6e-17" value="" style="shape=flexArrow;endArrow=classic;html=1;rounded=0;exitX=0.5;exitY=1;exitDx=0;exitDy=0;entryX=0;entryY=0;entryDx=0;entryDy=0;" edge="1" parent="1" source="FfotNthqdJwn24juFb6e-12" target="FfotNthqdJwn24juFb6e-16">
          <mxGeometry width="50" height="50" relative="1" as="geometry">
            <mxPoint x="280" y="760" as="sourcePoint" />
            <mxPoint x="330" y="710" as="targetPoint" />
          </mxGeometry>
        </mxCell>
        <mxCell id="FfotNthqdJwn24juFb6e-18" value="" style="shape=flexArrow;endArrow=classic;html=1;rounded=0;exitX=0.5;exitY=1;exitDx=0;exitDy=0;entryX=1;entryY=0;entryDx=0;entryDy=0;" edge="1" parent="1" source="FfotNthqdJwn24juFb6e-13" target="FfotNthqdJwn24juFb6e-16">
          <mxGeometry width="50" height="50" relative="1" as="geometry">
            <mxPoint x="510" y="690" as="sourcePoint" />
            <mxPoint x="588" y="792" as="targetPoint" />
          </mxGeometry>
        </mxCell>
        <mxCell id="FfotNthqdJwn24juFb6e-19" value="Ja" style="text;html=1;align=center;verticalAlign=middle;whiteSpace=wrap;rounded=0;" vertex="1" parent="1">
          <mxGeometry x="260" y="530" width="60" height="30" as="geometry" />
        </mxCell>
        <mxCell id="FfotNthqdJwn24juFb6e-20" value="Nee" style="text;html=1;align=center;verticalAlign=middle;whiteSpace=wrap;rounded=0;" vertex="1" parent="1">
          <mxGeometry x="510" y="530" width="60" height="30" as="geometry" />
        </mxCell>
        <mxCell id="FfotNthqdJwn24juFb6e-21" value="Controleer of de invoer een getal is" style="rhombus;whiteSpace=wrap;html=1;" vertex="1" parent="1">
          <mxGeometry x="351" y="240" width="126" height="100" as="geometry" />
        </mxCell>
      </root>
    </mxGraphModel>
  </diagram>
</mxfile>
